HIERARCHY
ROOT hip
{
	OFFSET 0.000000 0.000000 0.000000
	CHANNELS 6 Xposition Yposition Zposition Xrotation Zrotation Yrotation 
	JOINT abdomen
	{
		OFFSET 0.000000 3.422050 0.000000
		CHANNELS 3 Xrotation Zrotation Yrotation 
		JOINT chest
		{
			OFFSET 0.000000 8.486693 -0.684411
			CHANNELS 3 Xrotation Zrotation Yrotation 
			JOINT neck
			{
				OFFSET 0.000000 10.266162 -0.273764
				CHANNELS 3 Xrotation Zrotation Yrotation 
				JOINT head
				{
					OFFSET 0.000000 3.148285 0.000000
					CHANNELS 3 Xrotation Zrotation Yrotation 
					End Site
					{
						OFFSET 0.000000 3.148289 0.000000
					}
				}
			}
			JOINT lCollar
			{
				OFFSET 3.422053 6.707223 -0.821293
				CHANNELS 3 Yrotation Zrotation Xrotation 
				JOINT lShldr
				{
					OFFSET 3.285171 0.000000 0.000000
					CHANNELS 3 Zrotation Yrotation Xrotation 
					JOINT lForeArm
					{
						OFFSET 10.129278 0.000000 0.000000
						CHANNELS 3 Yrotation Zrotation Xrotation 
						JOINT lHand
						{
							OFFSET 8.486692 0.000000 0.000000
							CHANNELS 3 Zrotation Yrotation Xrotation 
							End Site
							{
								OFFSET 4.106464 0.000000 0.000000
							}
						}
					}
				}
			}
			JOINT rCollar
			{
				OFFSET -3.558935 6.707223 -0.821293
				CHANNELS 3 Yrotation Zrotation Xrotation 
				JOINT rShldr
				{
					OFFSET -3.148289 0.000000 0.000000
					CHANNELS 3 Zrotation Yrotation Xrotation 
					JOINT rForeArm
					{
						OFFSET -10.266159 0.000000 0.000000
						CHANNELS 3 Yrotation Zrotation Xrotation 
						JOINT rHand
						{
							OFFSET -8.349810 0.000000 0.000000
							CHANNELS 3 Zrotation Yrotation Xrotation 
							End Site
							{
								OFFSET -4.106464 0.000000 0.000000
							}
						}
					}
				}
			}
		}
	}
	JOINT lThigh
	{
		OFFSET 5.338403 -1.642589 1.368821
		CHANNELS 3 Xrotation Zrotation Yrotation 
		JOINT lShin
		{
			OFFSET -2.053232 -20.121670 0.000000
			CHANNELS 3 Xrotation Zrotation Yrotation 
			JOINT lFoot
			{
				OFFSET 0.000000 -19.300380 -1.231939
				CHANNELS 3 Xrotation Yrotation Zrotation 
				End Site
				{
					OFFSET 0.000000 -2.463878 4.653993
				}
			}
		}
	}
	JOINT rThigh
	{
		OFFSET -5.338403 -1.642589 1.368821
		CHANNELS 3 Xrotation Zrotation Yrotation 
		JOINT rShin
		{
			OFFSET 2.053232 -20.121670 0.000000
			CHANNELS 3 Xrotation Zrotation Yrotation 
			JOINT rFoot
			{
				OFFSET 0.000000 -19.300380 -1.231939
				CHANNELS 3 Xrotation Yrotation Zrotation 
				End Site
				{
					OFFSET 0.000000 -2.463878 4.653993
				}
			}
		}
	}
}
MOTION
Frames: 10
Frame Time: 0.033264
0.000000 43.528500 0.000000 0.000000 0.000000 0.000000 0.000000 0.000000 0.000000 0.000000 0.000000 0.000000 0.000000 0.000000 0.000000 0.000000 0.000000 0.000000 0.000000 0.000000 0.000000 0.000000 0.000000 0.000000 0.000000 0.000000 0.000000 0.000000 0.000000 0.000000 0.000000 0.000000 0.000000 0.000000 0.000000 0.000000 0.000000 0.000000 0.000000 0.000000 0.000000 0.000000 0.000000 0.000000 0.000000 0.000000 0.000000 0.000000 0.000000 0.000000 0.000000 0.000000 0.000000 0.000000 0.000000 0.000000 0.000000 0.000000 0.000000 0.000000 
28.304211 5.972748 0.000000 93.539154 -0.016851 -0.255340 -16.609047 -2.198715 0.252049 -25.431334 -0.002798 -0.449295 -0.050707 -0.000083 -0.187093 -0.000424 0.201077 -0.239553 -0.001347 -8.002656 -0.194655 -38.597115 -58.467793 -3.713815 -81.545074 26.206867 47.072033 -7.000325 0.000000 0.000000 -0.002182 7.999156 -0.194408 38.588985 58.463844 -3.719616 81.531433 -26.215797 47.072311 17.559326 -7.726072 -1.122315 -5.126451 4.947763 0.035899 102.341667 -23.914946 -5.312833 7.047892 15.352027 14.054902 -5.124784 -5.472084 -0.163216 85.449913 20.828342 -11.485323 19.888340 -5.651645 -10.278736 
28.304211 5.972748 0.000000 93.539154 -0.016851 -0.255340 -16.609047 -2.198715 0.252049 -25.431335 -0.002798 -0.449295 -0.099799 0.011069 -0.372269 0.037570 0.400972 -0.471418 -0.001347 -8.002656 -0.194655 -38.597115 -58.467793 -3.713815 -81.440453 25.848669 46.565685 -6.819741 0.048030 0.209572 -0.002182 7.999157 -0.194408 38.588985 58.463844 -3.719616 81.531433 -26.215797 47.072311 17.559326 -7.726072 -1.122315 -5.126451 4.947763 0.035899 102.500320 -23.487154 -5.331919 7.047892 15.352027 14.054902 -5.124784 -5.472084 -0.163216 85.911972 20.476315 -11.410492 19.888340 -5.651645 -10.278736 
28.304211 5.972748 0.000000 93.539154 -0.016851 -0.255340 -16.609047 -2.198715 0.252049 -25.431337 -0.002798 -0.449295 -0.148945 0.022066 -0.557526 0.074780 0.601152 -0.703312 -0.001347 -8.002656 -0.194655 -38.597115 -58.467793 -3.713815 -81.339539 25.489126 46.060852 -6.638828 0.095439 0.419471 -0.002182 7.999156 -0.194408 38.588993 58.463844 -3.719613 81.531433 -26.215799 47.072315 17.559326 -7.726072 -1.122315 -5.126451 4.947763 0.035899 102.658424 -23.059027 -5.349670 7.047893 15.352029 14.054903 -5.124784 -5.472084 -0.163216 86.372971 20.123377 -11.338788 19.888340 -5.651645 -10.278736 
28.304211 5.972748 0.000000 93.539154 -0.016851 -0.255340 -16.609047 -2.198715 0.252049 -25.431335 -0.002798 -0.449295 -0.198146 0.032909 -0.742864 0.111205 0.801611 -0.935235 -0.001347 -8.002656 -0.194655 -38.597115 -58.467793 -3.713815 -81.242256 25.128269 45.557476 -6.457594 0.142223 0.629694 -0.002182 7.999157 -0.194408 38.588985 58.463844 -3.719616 81.531433 -26.215799 47.072315 17.559326 -7.726072 -1.122315 -5.126451 4.947763 0.035899 102.815987 -22.630594 -5.366096 7.047892 15.352027 14.054902 -5.124784 -5.472085 -0.163216 86.832909 19.769558 -11.270195 19.888342 -5.651645 -10.278738 
28.304211 5.972748 0.000000 93.539154 -0.016851 -0.255340 -16.609047 -2.198715 0.252049 -25.431334 -0.002798 -0.449295 -0.247399 0.043596 -0.928280 0.146842 1.002342 -1.167191 -0.001347 -8.002656 -0.194655 -38.597115 -58.467793 -3.713815 -81.148636 24.766151 45.055553 -6.276039 0.188379 0.840236 -0.002182 7.999156 -0.194408 38.588993 58.463852 -3.719617 81.531433 -26.215797 47.072311 17.559326 -7.726072 -1.122315 -5.126452 4.947763 0.035899 102.973000 -22.201851 -5.381202 7.047892 15.352027 14.054902 -5.124784 -5.472084 -0.163216 87.291824 19.414904 -11.204710 19.888342 -5.651645 -10.278737 
28.304211 5.972748 0.000000 93.539162 -0.016851 -0.255340 -16.609049 -2.198715 0.252049 -25.431337 -0.002798 -0.449295 -0.296706 0.054128 -1.113774 0.181690 1.203342 -1.399182 -0.001347 -8.002656 -0.194655 -38.597118 -58.467808 -3.713816 -81.058655 24.402822 44.555069 -6.094169 0.233904 1.051094 -0.002182 7.999158 -0.194408 38.588989 58.463852 -3.719619 81.531433 -26.215797 47.072311 17.559326 -7.726072 -1.122315 -5.126452 4.947763 0.035899 103.129532 -21.772833 -5.395010 7.047892 15.352027 14.054902 -5.124784 -5.472084 -0.163216 87.749748 19.059458 -11.142323 19.888342 -5.651645 -10.278737 
28.304211 5.972748 0.000000 93.539146 -0.016851 -0.255340 -16.609045 -2.198715 0.252049 -25.431332 -0.002798 -0.449295 -0.346064 0.064503 -1.299344 0.215747 1.404602 -1.631208 -0.001347 -8.002654 -0.194655 -38.597115 -58.467793 -3.713815 -80.972313 24.038328 44.056000 -5.911988 0.278794 1.262263 -0.002182 7.999156 -0.194408 38.588985 58.463837 -3.719614 81.531433 -26.215797 47.072311 17.559324 -7.726071 -1.122314 -5.126451 4.947763 0.035899 103.285568 -21.343552 -5.407521 7.047892 15.352027 14.054902 -5.124784 -5.472084 -0.163216 88.206635 18.703247 -11.083013 19.888340 -5.651644 -10.278735 
28.304211 5.972748 0.000000 93.539154 -0.016851 -0.255340 -16.609045 -2.198715 0.252049 -25.431332 -0.002798 -0.449295 -0.395473 0.074723 -1.484990 0.249010 1.606118 -1.863275 -0.001347 -8.002656 -0.194655 -38.597111 -58.467785 -3.713813 -80.889565 23.672710 43.558315 -5.729500 0.323047 1.473741 -0.002182 7.999156 -0.194408 38.588985 58.463837 -3.719614 81.531433 -26.215797 47.072311 17.559326 -7.726071 -1.122315 -5.126451 4.947763 0.035899 103.441147 -20.914024 -5.418755 7.047892 15.352027 14.054902 -5.124784 -5.472084 -0.163216 88.662560 18.346321 -11.026782 19.888338 -5.651644 -10.278735 
28.304211 5.972748 0.000000 93.539154 -0.016851 -0.255340 -16.609045 -2.198715 0.252049 -25.431334 -0.002798 -0.449295 -0.444933 0.084785 -1.670711 0.281479 1.807883 -2.095381 -0.001347 -8.002656 -0.194655 -38.597115 -58.467793 -3.713815 -80.810440 23.306019 43.062019 -5.546707 0.366658 1.685523 -0.002182 7.999156 -0.194408 38.588982 58.463833 -3.719615 81.531433 -26.215797 47.072311 17.559326 -7.726072 -1.122315 -5.126451 4.947762 0.035899 103.596252 -20.484264 -5.428712 7.047892 15.352025 14.054902 -5.124784 -5.472084 -0.163216 89.117516 17.988718 -10.973615 19.888340 -5.651645 -10.278736 
